<?xml version="1.0" encoding="UTF-8"?>
<svg xmlns="http://www.w3.org/2000/svg" xmlns:xlink="http://www.w3.org/1999/xlink" height="98.0" preserveAspectRatio="xMidYMid meet" version="1.0" viewBox="0.0 0.0 500.0 98.0" width="500.0" zoomAndPan="magnify"><defs><clipPath id="a"><path d="M 249.894531 97.980469 C 263.089844 97.980469 249.894531 66.261719 249.894531 66.261719 C 249.894531 66.261719 236.695312 97.980469 249.894531 97.980469 Z M 249.894531 49.929688 C 262.597656 20.648438 284.363281 24.964844 284.363281 24.964844 C 282.839844 20.03125 276.574219 19.726562 276.574219 19.726562 C 262.636719 9.863281 254.050781 34.828125 254.050781 34.828125 C 254.882812 21.574219 265.3125 13.558594 265.3125 13.558594 C 262.609375 10.785156 255.683594 13.558594 255.683594 13.558594 C 255.683594 13.558594 257.84375 0 249.894531 0 C 241.945312 0 244.101562 13.558594 244.101562 13.558594 C 244.101562 13.558594 237.175781 10.785156 234.472656 13.558594 C 234.472656 13.558594 244.90625 21.574219 245.738281 34.828125 C 245.738281 34.828125 237.152344 9.863281 223.210938 19.726562 C 223.210938 19.726562 216.945312 20.03125 215.421875 24.964844 C 215.421875 24.964844 237.191406 20.648438 249.894531 49.929688 Z M 34.433594 55.09375 C 25.222656 43.972656 16.980469 44.164062 16.980469 44.164062 L 20.375 52.152344 C 5.585938 48.273438 0 68.574219 0 68.574219 C 0 68.574219 8.011719 61.160156 18.675781 61.160156 C 29.34375 61.160156 48.253906 70.75 56.496094 70.75 C 60.863281 70.75 64.675781 70.75 67.304688 70.75 C 56.769531 70.207031 42.632812 64.988281 34.433594 55.09375 Z M 71.042969 70.75 C 71.042969 70.75 69.636719 70.75 67.304688 70.75 C 68.609375 70.820312 69.867188 70.828125 71.042969 70.75 Z M 71.464844 68.558594 C 71.726562 68.5625 71.984375 68.578125 72.253906 68.574219 C 72.253906 68.574219 71.964844 68.574219 71.464844 68.558594 Z M 71.464844 68.558594 C 71.046875 68.542969 70.472656 68.515625 69.777344 68.457031 C 70.320312 68.511719 70.882812 68.546875 71.464844 68.558594 Z M 59.40625 48.675781 C 64.738281 48.675781 67.164062 54.0625 67.164062 54.0625 C 67.164062 54.0625 72.339844 46.515625 65.707031 40.757812 C 59.566406 35.421875 43.40625 39.300781 47.527344 54.0625 C 50.765625 65.660156 64.175781 67.988281 69.777344 68.457031 C 54.929688 66.886719 54.339844 48.675781 59.40625 48.675781 Z M 102.074219 70.75 C 102.300781 70.6875 101.277344 70.753906 99.597656 70.851562 C 100.570312 70.941406 101.429688 70.929688 102.074219 70.75 Z M 82.195312 65.886719 C 78.558594 65.078125 71.042969 65.886719 71.042969 65.886719 C 71.042969 65.886719 79.769531 69.605469 83.890625 70.75 C 86.847656 71.574219 95.335938 71.101562 99.597656 70.851562 C 94.347656 70.363281 85.261719 66.570312 82.195312 65.886719 Z M 111.285156 71.09375 C 106.4375 71.09375 100.132812 77.363281 100.132812 77.363281 C 100.132812 77.363281 114.03125 82.03125 127.769531 71.09375 C 128.734375 70.324219 116.132812 71.09375 111.285156 71.09375 Z M 102.074219 65.886719 C 88.980469 54.898438 75.40625 55.09375 75.40625 55.09375 C 75.40625 55.09375 83.40625 61.121094 86.800781 64.273438 C 90.195312 67.425781 102.074219 65.886719 102.074219 65.886719 Z M 98.679688 49.027344 C 92.242188 34.507812 97.222656 19.757812 97.222656 19.757812 C 82.4375 23.003906 87.042969 43.417969 87.042969 43.417969 C 82.4375 40.023438 75.40625 43.425781 75.40625 43.425781 C 81.222656 43.179688 92.859375 53.605469 102.800781 61.929688 C 112.738281 70.257812 137.710938 68.394531 137.710938 68.394531 C 137.710938 68.394531 105.113281 63.546875 98.679688 49.027344 Z M 134.558594 64.273438 C 124.359375 56.894531 115.890625 50.210938 117.347656 56.671875 C 118.800781 63.128906 134.558594 64.273438 134.558594 64.273438 Z M 189.589844 62.820312 C 190.558594 55.304688 193.742188 48.675781 193.742188 48.675781 C 177.535156 63.453125 188.621094 70.332031 189.589844 62.820312 Z M 189.589844 30.089844 C 189.589844 30.089844 182.558594 24.394531 179.164062 20.574219 C 175.769531 16.757812 165.589844 27.421875 189.589844 30.089844 Z M 186.925781 41.726562 C 186.925781 41.726562 177.46875 40.03125 169.953125 47.546875 C 162.4375 55.0625 154.4375 58.695312 147.164062 58.695312 C 139.890625 58.695312 134.800781 45.121094 144.984375 35.421875 C 144.984375 35.421875 137.65625 37.929688 136.496094 50.210938 C 135.339844 62.492188 150.558594 63.789062 156.863281 60.152344 C 163.164062 56.515625 173.105469 42.9375 186.925781 41.726562 Z M 223.914062 51.382812 C 220.195312 55.234375 224.816406 58.597656 224.816406 58.597656 C 224.652344 54.890625 228.921875 53.386719 230.351562 55.792969 C 231.519531 57.761719 230.511719 61.75 225.355469 61.085938 C 220.203125 60.421875 218.433594 49.1875 227.609375 49.027344 C 233.257812 48.929688 237.132812 53.507812 239.28125 57.054688 C 233.40625 46.753906 224.984375 43.234375 216.820312 41.457031 C 205.707031 39.042969 197.816406 48.0625 196.851562 56.671875 C 195.882812 65.277344 198.859375 71.898438 204.742188 72.21875 C 210.625 72.542969 210.863281 69.644531 210.863281 69.644531 C 209.410156 69.644531 206.03125 69 206.03125 64.8125 C 206.03125 60.625 210.164062 58.816406 213.761719 62.234375 C 217.101562 65.410156 216.015625 73.347656 205.546875 73.667969 C 195.078125 73.992188 190.570312 62.394531 193.742188 52.25 C 196.914062 42.101562 216.351562 34.269531 230.832031 44.355469 C 238.34375 49.585938 241.738281 56.578125 243.273438 62.101562 C 241.664062 53.851562 238.964844 49.496094 233.410156 44.035156 C 224.695312 35.46875 215.28125 35.875 206.078125 35.707031 C 205.726562 36.34375 193.46875 39.304688 185.710938 51.667969 C 177.953125 64.03125 176.742188 67.910156 171.164062 69.363281 C 171.164062 69.363281 173.105469 59.183594 173.105469 58.453125 C 173.105469 57.726562 164.863281 78.882812 143.042969 71.09375 C 143.042969 71.09375 148.863281 69.121094 150.316406 66.210938 C 150.316406 66.210938 130.679688 68.636719 125.347656 47.304688 L 130.4375 50.695312 C 130.4375 50.695312 126.558594 26.453125 155.40625 34.453125 C 155.40625 34.453125 144.738281 40.515625 144.738281 47.546875 C 144.738281 54.574219 155.894531 55.515625 161.953125 45.832031 C 168.015625 36.152344 178.679688 36.394531 178.679688 36.394531 C 178.679688 36.394531 160.742188 36.195312 158.316406 20.574219 L 161.953125 22.089844 C 161.953125 22.089844 159.042969 4.953125 168.984375 4.953125 C 178.921875 4.953125 177.46875 18.210938 170.195312 17.96875 C 170.195312 17.96875 177.03125 10.695312 170.195312 10.695312 C 163.363281 10.695312 161.441406 36.40625 198.425781 34.460938 C 198.425781 34.460938 198.4375 34.457031 198.441406 34.457031 C 193.65625 32.25 192.957031 27.46875 194.433594 23.902344 C 196.367188 19.230469 204.257812 19.554688 205.0625 24.386719 C 205.867188 29.21875 199.910156 28.734375 199.75 26.320312 C 199.589844 23.902344 201.199219 23.257812 201.199219 23.257812 C 199.75 21.488281 195.5625 22.453125 195.5625 27.285156 C 195.5625 32.117188 199.589844 33.886719 207.964844 33.886719 C 216.339844 33.886719 224.066406 34.210938 233.085938 41.617188 C 241.273438 48.34375 244.011719 60.492188 244.449219 68.703125 C 244.5625 70.195312 244.523438 71.09375 244.523438 71.09375 C 243.503906 66.695312 242.210938 62.96875 240.703125 59.789062 C 237.652344 54.15625 228.019531 47.128906 223.914062 51.382812 Z M 432.695312 70.75 C 430.363281 70.75 428.957031 70.75 428.957031 70.75 C 430.132812 70.828125 431.390625 70.820312 432.695312 70.75 Z M 479.625 52.152344 L 483.019531 44.164062 C 483.019531 44.164062 474.777344 43.972656 465.566406 55.09375 C 457.367188 64.988281 443.230469 70.207031 432.695312 70.75 C 435.324219 70.75 439.136719 70.75 443.503906 70.75 C 451.746094 70.75 470.65625 61.160156 481.324219 61.160156 C 491.988281 61.160156 500 68.574219 500 68.574219 C 500 68.574219 494.414062 48.273438 479.625 52.152344 Z M 428.535156 68.558594 C 429.117188 68.546875 429.679688 68.511719 430.222656 68.457031 C 429.527344 68.515625 428.953125 68.542969 428.535156 68.558594 Z M 452.472656 54.0625 C 456.597656 39.300781 440.433594 35.421875 434.292969 40.757812 C 427.660156 46.515625 432.835938 54.0625 432.835938 54.0625 C 432.835938 54.0625 435.261719 48.675781 440.59375 48.675781 C 445.660156 48.675781 445.070312 66.886719 430.222656 68.457031 C 435.824219 67.988281 449.234375 65.660156 452.472656 54.0625 Z M 428.535156 68.558594 C 428.035156 68.574219 427.746094 68.574219 427.746094 68.574219 C 428.015625 68.578125 428.269531 68.5625 428.535156 68.558594 Z M 397.925781 70.75 C 398.570312 70.929688 399.429688 70.941406 400.402344 70.851562 C 398.722656 70.753906 397.699219 70.6875 397.925781 70.75 Z M 417.808594 65.886719 C 414.738281 66.570312 405.648438 70.363281 400.402344 70.851562 C 404.664062 71.101562 413.152344 71.574219 416.109375 70.75 C 420.230469 69.605469 428.957031 65.886719 428.957031 65.886719 C 428.957031 65.886719 421.441406 65.078125 417.808594 65.886719 Z M 372.230469 71.09375 C 385.96875 82.03125 399.867188 77.363281 399.867188 77.363281 C 399.867188 77.363281 393.5625 71.09375 388.714844 71.09375 C 383.867188 71.09375 371.265625 70.324219 372.230469 71.09375 Z M 413.199219 64.273438 C 416.59375 61.121094 424.59375 55.09375 424.59375 55.09375 C 424.59375 55.09375 411.019531 54.898438 397.925781 65.886719 C 397.925781 65.886719 409.808594 67.425781 413.199219 64.273438 Z M 424.59375 43.425781 C 424.59375 43.425781 417.5625 40.023438 412.957031 43.417969 C 412.957031 43.417969 417.5625 23.003906 402.773438 19.757812 C 402.773438 19.757812 407.757812 34.507812 401.320312 49.027344 C 394.886719 63.546875 362.289062 68.394531 362.289062 68.394531 C 362.289062 68.394531 387.261719 70.257812 397.199219 61.929688 C 407.140625 53.605469 418.777344 43.179688 424.59375 43.425781 Z M 382.652344 56.671875 C 384.109375 50.210938 375.640625 56.894531 365.441406 64.273438 C 365.441406 64.273438 381.199219 63.128906 382.652344 56.671875 Z M 306.257812 48.675781 C 306.257812 48.675781 309.4375 55.304688 310.410156 62.820312 C 311.378906 70.332031 322.464844 63.453125 306.257812 48.675781 Z M 363.503906 50.210938 C 362.34375 37.929688 355.015625 35.421875 355.015625 35.421875 C 365.199219 45.121094 360.105469 58.695312 352.835938 58.695312 C 345.5625 58.695312 337.5625 55.0625 330.046875 47.546875 C 322.53125 40.03125 313.074219 41.726562 313.074219 41.726562 C 326.894531 42.9375 336.835938 56.515625 343.136719 60.152344 C 349.441406 63.789062 364.660156 62.492188 363.503906 50.210938 Z M 356.957031 71.09375 C 335.136719 78.882812 326.894531 57.726562 326.894531 58.453125 C 326.894531 59.183594 328.835938 69.363281 328.835938 69.363281 C 323.257812 67.910156 322.046875 64.03125 314.289062 51.667969 C 306.53125 39.304688 294.273438 36.34375 293.921875 35.707031 C 284.722656 35.875 275.304688 35.46875 266.589844 44.035156 C 261.035156 49.496094 258.335938 53.851562 256.726562 62.101562 C 258.261719 56.578125 261.65625 49.585938 269.167969 44.355469 C 283.648438 34.269531 303.085938 42.101562 306.257812 52.25 C 309.429688 62.394531 304.921875 73.992188 294.453125 73.667969 C 283.984375 73.347656 282.898438 65.410156 286.238281 62.234375 C 289.835938 58.816406 293.96875 60.625 293.96875 64.8125 C 293.96875 69 290.589844 69.644531 289.140625 69.644531 C 289.140625 69.644531 289.375 72.542969 295.257812 72.21875 C 301.140625 71.898438 304.117188 65.277344 303.148438 56.671875 C 302.183594 48.0625 294.292969 39.042969 283.179688 41.457031 C 275.015625 43.234375 266.59375 46.753906 260.71875 57.054688 C 262.867188 53.507812 266.742188 48.929688 272.390625 49.027344 C 281.566406 49.1875 279.796875 60.421875 274.644531 61.085938 C 269.488281 61.75 268.480469 57.761719 269.648438 55.792969 C 271.078125 53.386719 275.347656 54.890625 275.1875 58.597656 C 275.1875 58.597656 279.804688 55.234375 276.085938 51.382812 C 271.980469 47.128906 262.347656 54.15625 259.296875 59.789062 C 257.789062 62.96875 256.496094 66.695312 255.476562 71.09375 C 255.476562 71.09375 255.4375 70.195312 255.550781 68.703125 C 255.988281 60.492188 258.726562 48.34375 266.910156 41.617188 C 275.933594 34.210938 283.660156 33.886719 292.035156 33.886719 C 300.410156 33.886719 304.4375 32.117188 304.4375 27.285156 C 304.4375 22.453125 300.25 21.488281 298.800781 23.257812 C 298.800781 23.257812 300.410156 23.902344 300.25 26.320312 C 300.089844 28.734375 294.132812 29.21875 294.9375 24.386719 C 295.742188 19.554688 303.632812 19.230469 305.566406 23.902344 C 307.042969 27.46875 306.34375 32.25 301.558594 34.457031 C 301.5625 34.457031 301.574219 34.460938 301.574219 34.460938 C 338.558594 36.40625 336.636719 10.695312 329.804688 10.695312 C 322.972656 10.695312 329.804688 17.96875 329.804688 17.96875 C 322.53125 18.210938 321.078125 4.953125 331.015625 4.953125 C 340.957031 4.953125 338.046875 22.089844 338.046875 22.089844 L 341.683594 20.574219 C 339.257812 36.195312 321.320312 36.394531 321.320312 36.394531 C 321.320312 36.394531 331.984375 36.152344 338.046875 45.832031 C 344.105469 55.515625 355.261719 54.574219 355.261719 47.546875 C 355.261719 40.515625 344.59375 34.453125 344.59375 34.453125 C 373.441406 26.453125 369.5625 50.695312 369.5625 50.695312 L 374.652344 47.304688 C 369.320312 68.636719 349.683594 66.210938 349.683594 66.210938 C 351.136719 69.121094 356.957031 71.09375 356.957031 71.09375 Z M 310.410156 30.089844 C 310.410156 30.089844 317.441406 24.394531 320.835938 20.574219 C 324.230469 16.757812 334.410156 27.421875 310.410156 30.089844 Z M 310.410156 30.089844"/></clipPath><clipPath id="b"><path d="M 249.894531 97.980469 C 263.089844 97.980469 249.894531 66.261719 249.894531 66.261719 C 249.894531 66.261719 236.695312 97.980469 249.894531 97.980469 Z M 249.894531 49.929688 C 262.597656 20.648438 284.363281 24.964844 284.363281 24.964844 C 282.839844 20.03125 276.574219 19.726562 276.574219 19.726562 C 262.636719 9.863281 254.050781 34.828125 254.050781 34.828125 C 254.882812 21.574219 265.3125 13.558594 265.3125 13.558594 C 262.609375 10.785156 255.683594 13.558594 255.683594 13.558594 C 255.683594 13.558594 257.84375 0 249.894531 0 C 241.945312 0 244.101562 13.558594 244.101562 13.558594 C 244.101562 13.558594 237.175781 10.785156 234.472656 13.558594 C 234.472656 13.558594 244.90625 21.574219 245.738281 34.828125 C 245.738281 34.828125 237.152344 9.863281 223.210938 19.726562 C 223.210938 19.726562 216.945312 20.03125 215.421875 24.964844 C 215.421875 24.964844 237.191406 20.648438 249.894531 49.929688 Z M 34.433594 55.09375 C 25.222656 43.972656 16.980469 44.164062 16.980469 44.164062 L 20.375 52.152344 C 5.585938 48.273438 0 68.574219 0 68.574219 C 0 68.574219 8.011719 61.160156 18.675781 61.160156 C 29.34375 61.160156 48.253906 70.75 56.496094 70.75 C 60.863281 70.75 64.675781 70.75 67.304688 70.75 C 56.769531 70.207031 42.632812 64.988281 34.433594 55.09375 Z M 71.042969 70.75 C 71.042969 70.75 69.636719 70.75 67.304688 70.75 C 68.609375 70.820312 69.867188 70.828125 71.042969 70.75 Z M 71.464844 68.558594 C 71.726562 68.5625 71.984375 68.578125 72.253906 68.574219 C 72.253906 68.574219 71.964844 68.574219 71.464844 68.558594 Z M 71.464844 68.558594 C 71.046875 68.542969 70.472656 68.515625 69.777344 68.457031 C 70.320312 68.511719 70.882812 68.546875 71.464844 68.558594 Z M 59.40625 48.675781 C 64.738281 48.675781 67.164062 54.0625 67.164062 54.0625 C 67.164062 54.0625 72.339844 46.515625 65.707031 40.757812 C 59.566406 35.421875 43.40625 39.300781 47.527344 54.0625 C 50.765625 65.660156 64.175781 67.988281 69.777344 68.457031 C 54.929688 66.886719 54.339844 48.675781 59.40625 48.675781 Z M 102.074219 70.75 C 102.300781 70.6875 101.277344 70.753906 99.597656 70.851562 C 100.570312 70.941406 101.429688 70.929688 102.074219 70.75 Z M 82.195312 65.886719 C 78.558594 65.078125 71.042969 65.886719 71.042969 65.886719 C 71.042969 65.886719 79.769531 69.605469 83.890625 70.75 C 86.847656 71.574219 95.335938 71.101562 99.597656 70.851562 C 94.347656 70.363281 85.261719 66.570312 82.195312 65.886719 Z M 111.285156 71.09375 C 106.4375 71.09375 100.132812 77.363281 100.132812 77.363281 C 100.132812 77.363281 114.03125 82.03125 127.769531 71.09375 C 128.734375 70.324219 116.132812 71.09375 111.285156 71.09375 Z M 102.074219 65.886719 C 88.980469 54.898438 75.40625 55.09375 75.40625 55.09375 C 75.40625 55.09375 83.40625 61.121094 86.800781 64.273438 C 90.195312 67.425781 102.074219 65.886719 102.074219 65.886719 Z M 98.679688 49.027344 C 92.242188 34.507812 97.222656 19.757812 97.222656 19.757812 C 82.4375 23.003906 87.042969 43.417969 87.042969 43.417969 C 82.4375 40.023438 75.40625 43.425781 75.40625 43.425781 C 81.222656 43.179688 92.859375 53.605469 102.800781 61.929688 C 112.738281 70.257812 137.710938 68.394531 137.710938 68.394531 C 137.710938 68.394531 105.113281 63.546875 98.679688 49.027344 Z M 134.558594 64.273438 C 124.359375 56.894531 115.890625 50.210938 117.347656 56.671875 C 118.800781 63.128906 134.558594 64.273438 134.558594 64.273438 Z M 189.589844 62.820312 C 190.558594 55.304688 193.742188 48.675781 193.742188 48.675781 C 177.535156 63.453125 188.621094 70.332031 189.589844 62.820312 Z M 189.589844 30.089844 C 189.589844 30.089844 182.558594 24.394531 179.164062 20.574219 C 175.769531 16.757812 165.589844 27.421875 189.589844 30.089844 Z M 186.925781 41.726562 C 186.925781 41.726562 177.46875 40.03125 169.953125 47.546875 C 162.4375 55.0625 154.4375 58.695312 147.164062 58.695312 C 139.890625 58.695312 134.800781 45.121094 144.984375 35.421875 C 144.984375 35.421875 137.65625 37.929688 136.496094 50.210938 C 135.339844 62.492188 150.558594 63.789062 156.863281 60.152344 C 163.164062 56.515625 173.105469 42.9375 186.925781 41.726562 Z M 223.914062 51.382812 C 220.195312 55.234375 224.816406 58.597656 224.816406 58.597656 C 224.652344 54.890625 228.921875 53.386719 230.351562 55.792969 C 231.519531 57.761719 230.511719 61.75 225.355469 61.085938 C 220.203125 60.421875 218.433594 49.1875 227.609375 49.027344 C 233.257812 48.929688 237.132812 53.507812 239.28125 57.054688 C 233.40625 46.753906 224.984375 43.234375 216.820312 41.457031 C 205.707031 39.042969 197.816406 48.0625 196.851562 56.671875 C 195.882812 65.277344 198.859375 71.898438 204.742188 72.21875 C 210.625 72.542969 210.863281 69.644531 210.863281 69.644531 C 209.410156 69.644531 206.03125 69 206.03125 64.8125 C 206.03125 60.625 210.164062 58.816406 213.761719 62.234375 C 217.101562 65.410156 216.015625 73.347656 205.546875 73.667969 C 195.078125 73.992188 190.570312 62.394531 193.742188 52.25 C 196.914062 42.101562 216.351562 34.269531 230.832031 44.355469 C 238.34375 49.585938 241.738281 56.578125 243.273438 62.101562 C 241.664062 53.851562 238.964844 49.496094 233.410156 44.035156 C 224.695312 35.46875 215.28125 35.875 206.078125 35.707031 C 205.726562 36.34375 193.46875 39.304688 185.710938 51.667969 C 177.953125 64.03125 176.742188 67.910156 171.164062 69.363281 C 171.164062 69.363281 173.105469 59.183594 173.105469 58.453125 C 173.105469 57.726562 164.863281 78.882812 143.042969 71.09375 C 143.042969 71.09375 148.863281 69.121094 150.316406 66.210938 C 150.316406 66.210938 130.679688 68.636719 125.347656 47.304688 L 130.4375 50.695312 C 130.4375 50.695312 126.558594 26.453125 155.40625 34.453125 C 155.40625 34.453125 144.738281 40.515625 144.738281 47.546875 C 144.738281 54.574219 155.894531 55.515625 161.953125 45.832031 C 168.015625 36.152344 178.679688 36.394531 178.679688 36.394531 C 178.679688 36.394531 160.742188 36.195312 158.316406 20.574219 L 161.953125 22.089844 C 161.953125 22.089844 159.042969 4.953125 168.984375 4.953125 C 178.921875 4.953125 177.46875 18.210938 170.195312 17.96875 C 170.195312 17.96875 177.03125 10.695312 170.195312 10.695312 C 163.363281 10.695312 161.441406 36.40625 198.425781 34.460938 C 198.425781 34.460938 198.4375 34.457031 198.441406 34.457031 C 193.65625 32.25 192.957031 27.46875 194.433594 23.902344 C 196.367188 19.230469 204.257812 19.554688 205.0625 24.386719 C 205.867188 29.21875 199.910156 28.734375 199.75 26.320312 C 199.589844 23.902344 201.199219 23.257812 201.199219 23.257812 C 199.75 21.488281 195.5625 22.453125 195.5625 27.285156 C 195.5625 32.117188 199.589844 33.886719 207.964844 33.886719 C 216.339844 33.886719 224.066406 34.210938 233.085938 41.617188 C 241.273438 48.34375 244.011719 60.492188 244.449219 68.703125 C 244.5625 70.195312 244.523438 71.09375 244.523438 71.09375 C 243.503906 66.695312 242.210938 62.96875 240.703125 59.789062 C 237.652344 54.15625 228.019531 47.128906 223.914062 51.382812 Z M 432.695312 70.75 C 430.363281 70.75 428.957031 70.75 428.957031 70.75 C 430.132812 70.828125 431.390625 70.820312 432.695312 70.75 Z M 479.625 52.152344 L 483.019531 44.164062 C 483.019531 44.164062 474.777344 43.972656 465.566406 55.09375 C 457.367188 64.988281 443.230469 70.207031 432.695312 70.75 C 435.324219 70.75 439.136719 70.75 443.503906 70.75 C 451.746094 70.75 470.65625 61.160156 481.324219 61.160156 C 491.988281 61.160156 500 68.574219 500 68.574219 C 500 68.574219 494.414062 48.273438 479.625 52.152344 Z M 428.535156 68.558594 C 429.117188 68.546875 429.679688 68.511719 430.222656 68.457031 C 429.527344 68.515625 428.953125 68.542969 428.535156 68.558594 Z M 452.472656 54.0625 C 456.597656 39.300781 440.433594 35.421875 434.292969 40.757812 C 427.660156 46.515625 432.835938 54.0625 432.835938 54.0625 C 432.835938 54.0625 435.261719 48.675781 440.59375 48.675781 C 445.660156 48.675781 445.070312 66.886719 430.222656 68.457031 C 435.824219 67.988281 449.234375 65.660156 452.472656 54.0625 Z M 428.535156 68.558594 C 428.035156 68.574219 427.746094 68.574219 427.746094 68.574219 C 428.015625 68.578125 428.269531 68.5625 428.535156 68.558594 Z M 397.925781 70.75 C 398.570312 70.929688 399.429688 70.941406 400.402344 70.851562 C 398.722656 70.753906 397.699219 70.6875 397.925781 70.75 Z M 417.808594 65.886719 C 414.738281 66.570312 405.648438 70.363281 400.402344 70.851562 C 404.664062 71.101562 413.152344 71.574219 416.109375 70.75 C 420.230469 69.605469 428.957031 65.886719 428.957031 65.886719 C 428.957031 65.886719 421.441406 65.078125 417.808594 65.886719 Z M 372.230469 71.09375 C 385.96875 82.03125 399.867188 77.363281 399.867188 77.363281 C 399.867188 77.363281 393.5625 71.09375 388.714844 71.09375 C 383.867188 71.09375 371.265625 70.324219 372.230469 71.09375 Z M 413.199219 64.273438 C 416.59375 61.121094 424.59375 55.09375 424.59375 55.09375 C 424.59375 55.09375 411.019531 54.898438 397.925781 65.886719 C 397.925781 65.886719 409.808594 67.425781 413.199219 64.273438 Z M 424.59375 43.425781 C 424.59375 43.425781 417.5625 40.023438 412.957031 43.417969 C 412.957031 43.417969 417.5625 23.003906 402.773438 19.757812 C 402.773438 19.757812 407.757812 34.507812 401.320312 49.027344 C 394.886719 63.546875 362.289062 68.394531 362.289062 68.394531 C 362.289062 68.394531 387.261719 70.257812 397.199219 61.929688 C 407.140625 53.605469 418.777344 43.179688 424.59375 43.425781 Z M 382.652344 56.671875 C 384.109375 50.210938 375.640625 56.894531 365.441406 64.273438 C 365.441406 64.273438 381.199219 63.128906 382.652344 56.671875 Z M 306.257812 48.675781 C 306.257812 48.675781 309.4375 55.304688 310.410156 62.820312 C 311.378906 70.332031 322.464844 63.453125 306.257812 48.675781 Z M 363.503906 50.210938 C 362.34375 37.929688 355.015625 35.421875 355.015625 35.421875 C 365.199219 45.121094 360.105469 58.695312 352.835938 58.695312 C 345.5625 58.695312 337.5625 55.0625 330.046875 47.546875 C 322.53125 40.03125 313.074219 41.726562 313.074219 41.726562 C 326.894531 42.9375 336.835938 56.515625 343.136719 60.152344 C 349.441406 63.789062 364.660156 62.492188 363.503906 50.210938 Z M 356.957031 71.09375 C 335.136719 78.882812 326.894531 57.726562 326.894531 58.453125 C 326.894531 59.183594 328.835938 69.363281 328.835938 69.363281 C 323.257812 67.910156 322.046875 64.03125 314.289062 51.667969 C 306.53125 39.304688 294.273438 36.34375 293.921875 35.707031 C 284.722656 35.875 275.304688 35.46875 266.589844 44.035156 C 261.035156 49.496094 258.335938 53.851562 256.726562 62.101562 C 258.261719 56.578125 261.65625 49.585938 269.167969 44.355469 C 283.648438 34.269531 303.085938 42.101562 306.257812 52.25 C 309.429688 62.394531 304.921875 73.992188 294.453125 73.667969 C 283.984375 73.347656 282.898438 65.410156 286.238281 62.234375 C 289.835938 58.816406 293.96875 60.625 293.96875 64.8125 C 293.96875 69 290.589844 69.644531 289.140625 69.644531 C 289.140625 69.644531 289.375 72.542969 295.257812 72.21875 C 301.140625 71.898438 304.117188 65.277344 303.148438 56.671875 C 302.183594 48.0625 294.292969 39.042969 283.179688 41.457031 C 275.015625 43.234375 266.59375 46.753906 260.71875 57.054688 C 262.867188 53.507812 266.742188 48.929688 272.390625 49.027344 C 281.566406 49.1875 279.796875 60.421875 274.644531 61.085938 C 269.488281 61.75 268.480469 57.761719 269.648438 55.792969 C 271.078125 53.386719 275.347656 54.890625 275.1875 58.597656 C 275.1875 58.597656 279.804688 55.234375 276.085938 51.382812 C 271.980469 47.128906 262.347656 54.15625 259.296875 59.789062 C 257.789062 62.96875 256.496094 66.695312 255.476562 71.09375 C 255.476562 71.09375 255.4375 70.195312 255.550781 68.703125 C 255.988281 60.492188 258.726562 48.34375 266.910156 41.617188 C 275.933594 34.210938 283.660156 33.886719 292.035156 33.886719 C 300.410156 33.886719 304.4375 32.117188 304.4375 27.285156 C 304.4375 22.453125 300.25 21.488281 298.800781 23.257812 C 298.800781 23.257812 300.410156 23.902344 300.25 26.320312 C 300.089844 28.734375 294.132812 29.21875 294.9375 24.386719 C 295.742188 19.554688 303.632812 19.230469 305.566406 23.902344 C 307.042969 27.46875 306.34375 32.25 301.558594 34.457031 C 301.5625 34.457031 301.574219 34.460938 301.574219 34.460938 C 338.558594 36.40625 336.636719 10.695312 329.804688 10.695312 C 322.972656 10.695312 329.804688 17.96875 329.804688 17.96875 C 322.53125 18.210938 321.078125 4.953125 331.015625 4.953125 C 340.957031 4.953125 338.046875 22.089844 338.046875 22.089844 L 341.683594 20.574219 C 339.257812 36.195312 321.320312 36.394531 321.320312 36.394531 C 321.320312 36.394531 331.984375 36.152344 338.046875 45.832031 C 344.105469 55.515625 355.261719 54.574219 355.261719 47.546875 C 355.261719 40.515625 344.59375 34.453125 344.59375 34.453125 C 373.441406 26.453125 369.5625 50.695312 369.5625 50.695312 L 374.652344 47.304688 C 369.320312 68.636719 349.683594 66.210938 349.683594 66.210938 C 351.136719 69.121094 356.957031 71.09375 356.957031 71.09375 Z M 310.410156 30.089844 C 310.410156 30.089844 317.441406 24.394531 320.835938 20.574219 C 324.230469 16.757812 334.410156 27.421875 310.410156 30.089844"/></clipPath><radialGradient cx="0" cy="0" fx="0" fy="0" gradientTransform="rotate(2.386 -929.17 6337.915)" gradientUnits="userSpaceOnUse" id="c" r="218.371" xlink:actuate="onLoad" xlink:show="other" xlink:type="simple" xmlns:xlink="http://www.w3.org/1999/xlink"><stop offset="0" stop-color="#f4e35f"/><stop offset=".008" stop-color="#f3e25e"/><stop offset=".012" stop-color="#f3e25e"/><stop offset=".016" stop-color="#f3e25d"/><stop offset=".02" stop-color="#f2e15d"/><stop offset=".023" stop-color="#f2e05d"/><stop offset=".027" stop-color="#f1e05d"/><stop offset=".031" stop-color="#f0df5c"/><stop offset=".043" stop-color="#f0de5c"/><stop offset=".047" stop-color="#f0de5c"/><stop offset=".051" stop-color="#efde5b"/><stop offset=".055" stop-color="#efdd5b"/><stop offset=".059" stop-color="#efdd5a"/><stop offset=".063" stop-color="#efdc5a"/><stop offset=".066" stop-color="#eedc5a"/><stop offset=".07" stop-color="#eedb59"/><stop offset=".074" stop-color="#eedb59"/><stop offset=".078" stop-color="#edda59"/><stop offset=".082" stop-color="#edda59"/><stop offset=".086" stop-color="#edda58"/><stop offset=".09" stop-color="#edd958"/><stop offset=".094" stop-color="#ecd957"/><stop offset=".098" stop-color="#ecd857"/><stop offset=".102" stop-color="#ecd857"/><stop offset=".105" stop-color="#ecd757"/><stop offset=".109" stop-color="#ebd756"/><stop offset=".113" stop-color="#ebd656"/><stop offset=".117" stop-color="#ebd656"/><stop offset=".121" stop-color="#ebd555"/><stop offset=".125" stop-color="#ead555"/><stop offset=".137" stop-color="#ead454"/><stop offset=".141" stop-color="#e9d454"/><stop offset=".145" stop-color="#e9d354"/><stop offset=".148" stop-color="#e8d354"/><stop offset=".152" stop-color="#e8d253"/><stop offset=".156" stop-color="#e7d253"/><stop offset=".16" stop-color="#e7d153"/><stop offset=".164" stop-color="#e7d152"/><stop offset=".168" stop-color="#e7d052"/><stop offset=".172" stop-color="#e6d052"/><stop offset=".176" stop-color="#e6cf51"/><stop offset=".18" stop-color="#e6cf51"/><stop offset=".184" stop-color="#e6ce51"/><stop offset=".188" stop-color="#e5ce51"/><stop offset=".191" stop-color="#e5cd50"/><stop offset=".195" stop-color="#e4cd50"/><stop offset=".199" stop-color="#e4cc50"/><stop offset=".203" stop-color="#e3cc4f"/><stop offset=".207" stop-color="#e3cb4f"/><stop offset=".211" stop-color="#e3cb4f"/><stop offset=".215" stop-color="#e3ca4e"/><stop offset=".219" stop-color="#e2ca4e"/><stop offset=".223" stop-color="#e2c94d"/><stop offset=".227" stop-color="#e2c94d"/><stop offset=".23" stop-color="#e2c84d"/><stop offset=".234" stop-color="#e1c84c"/><stop offset=".238" stop-color="#e1c74c"/><stop offset=".242" stop-color="#e0c74c"/><stop offset=".246" stop-color="#e0c74c"/><stop offset=".25" stop-color="#dfc64b"/><stop offset=".254" stop-color="#dfc64b"/><stop offset=".262" stop-color="#dec54a"/><stop offset=".27" stop-color="#dec44a"/><stop offset=".277" stop-color="#ddc349"/><stop offset=".285" stop-color="#ddc249"/><stop offset=".293" stop-color="#dcc148"/><stop offset=".301" stop-color="#dcc047"/><stop offset=".309" stop-color="#dbbf47"/><stop offset=".316" stop-color="#dabe46"/><stop offset=".324" stop-color="#dabe45"/><stop offset=".332" stop-color="#d9bd45"/><stop offset=".34" stop-color="#d9bc44"/><stop offset=".348" stop-color="#d8bb44"/><stop offset=".355" stop-color="#d8ba44"/><stop offset=".363" stop-color="#d7b943"/><stop offset=".371" stop-color="#d6b842"/><stop offset=".379" stop-color="#d5b742"/><stop offset=".387" stop-color="#d5b641"/><stop offset=".395" stop-color="#d4b541"/><stop offset=".402" stop-color="#d4b540"/><stop offset=".41" stop-color="#d3b440"/><stop offset=".418" stop-color="#d3b340"/><stop offset=".426" stop-color="#d2b33f"/><stop offset=".434" stop-color="#d2b23e"/><stop offset=".441" stop-color="#d1b13e"/><stop offset=".449" stop-color="#d1b03d"/><stop offset=".457" stop-color="#d0af3c"/><stop offset=".465" stop-color="#d0af3c"/><stop offset=".473" stop-color="#cfae3b"/><stop offset=".48" stop-color="#cfad3b"/><stop offset=".488" stop-color="#ceac3a"/><stop offset=".496" stop-color="#cdab3a"/><stop offset=".504" stop-color="#cdaa39"/><stop offset=".508" stop-color="#cdaa39"/><stop offset=".512" stop-color="#cca939"/><stop offset=".516" stop-color="#cca938"/><stop offset=".52" stop-color="#cba838"/><stop offset=".523" stop-color="#cba838"/><stop offset=".535" stop-color="#caa737"/><stop offset=".539" stop-color="#caa737"/><stop offset=".543" stop-color="#caa737"/><stop offset=".547" stop-color="#caa637"/><stop offset=".551" stop-color="#c9a637"/><stop offset=".555" stop-color="#c9a537"/><stop offset=".559" stop-color="#c9a536"/><stop offset=".563" stop-color="#c8a436"/><stop offset=".566" stop-color="#c8a436"/><stop offset=".57" stop-color="#c7a335"/><stop offset=".574" stop-color="#c7a335"/><stop offset=".578" stop-color="#c7a335"/><stop offset=".582" stop-color="#c7a234"/><stop offset=".586" stop-color="#c7a234"/><stop offset=".59" stop-color="#c6a234"/><stop offset=".594" stop-color="#c6a133"/><stop offset=".598" stop-color="#c6a133"/><stop offset=".602" stop-color="#c6a033"/><stop offset=".605" stop-color="#c5a032"/><stop offset=".609" stop-color="#c59f32"/><stop offset=".613" stop-color="#c49f32"/><stop offset=".617" stop-color="#c49e31"/><stop offset=".621" stop-color="#c49e31"/><stop offset=".625" stop-color="#c49d31"/><stop offset=".629" stop-color="#c39d30"/><stop offset=".633" stop-color="#c39d30"/><stop offset=".637" stop-color="#c39c30"/><stop offset=".641" stop-color="#c29b2f"/><stop offset=".645" stop-color="#c19b2f"/><stop offset=".648" stop-color="#c19a2e"/><stop offset=".656" stop-color="#c1992e"/><stop offset=".664" stop-color="#c0992d"/><stop offset=".672" stop-color="#c0982d"/><stop offset=".68" stop-color="#bf972c"/><stop offset=".688" stop-color="#bf962c"/><stop offset=".695" stop-color="#be952b"/><stop offset=".703" stop-color="#bd942b"/><stop offset=".711" stop-color="#bd942a"/><stop offset=".715" stop-color="#bc932a"/><stop offset=".719" stop-color="#bc932a"/><stop offset=".723" stop-color="#bc9329"/><stop offset=".727" stop-color="#bb9229"/><stop offset=".73" stop-color="#bb9228"/><stop offset=".738" stop-color="#ba9127"/><stop offset=".746" stop-color="#ba9027"/><stop offset=".754" stop-color="#b98f26"/><stop offset=".758" stop-color="#b98e26"/><stop offset=".762" stop-color="#b98e26"/><stop offset=".766" stop-color="#b98e25"/><stop offset=".77" stop-color="#b98e25"/><stop offset=".773" stop-color="#b88d25"/><stop offset=".777" stop-color="#b88d24"/><stop offset=".781" stop-color="#b88d24"/><stop offset=".785" stop-color="#b78c24"/><stop offset=".789" stop-color="#b78b23"/><stop offset=".793" stop-color="#b68b23"/><stop offset=".805" stop-color="#b68a22"/><stop offset=".809" stop-color="#b68a22"/><stop offset=".813" stop-color="#b68922"/><stop offset=".816" stop-color="#b58921"/><stop offset=".824" stop-color="#b48821"/><stop offset=".832" stop-color="#b48721"/><stop offset=".84" stop-color="#b38620"/><stop offset=".848" stop-color="#b28520"/><stop offset=".855" stop-color="#b28420"/><stop offset=".863" stop-color="#b18320"/><stop offset=".871" stop-color="#b1831f"/><stop offset=".879" stop-color="#b0821f"/><stop offset=".883" stop-color="#b0821f"/><stop offset=".887" stop-color="#b0811e"/><stop offset=".891" stop-color="#af811e"/><stop offset=".895" stop-color="#af811e"/><stop offset=".898" stop-color="#af801e"/><stop offset=".902" stop-color="#af801e"/><stop offset=".906" stop-color="#ae7f1d"/><stop offset=".91" stop-color="#ae7e1d"/><stop offset=".918" stop-color="#ad7d1d"/><stop offset=".926" stop-color="#ac7d1d"/><stop offset=".934" stop-color="#ac7c1d"/><stop offset=".941" stop-color="#ac7b1d"/><stop offset=".945" stop-color="#ab7b1d"/><stop offset=".949" stop-color="#ab7a1d"/><stop offset=".953" stop-color="#ab7a1d"/><stop offset=".957" stop-color="#aa791d"/><stop offset=".965" stop-color="#a9781d"/><stop offset=".973" stop-color="#a9781d"/><stop offset=".977" stop-color="#a9771d"/><stop offset=".98" stop-color="#a8771d"/><stop offset=".988" stop-color="#a8761d"/><stop offset=".992" stop-color="#a7751d"/><stop offset="1" stop-color="#a7751d"/></radialGradient></defs><g><g clip-path="url(#a)"><g clip-path="url(#b)"><path d="M 0.867188 -20.796875 L -4.074219 97.808594 L 499.132812 118.777344 L 504.074219 0.167969 Z M 0.867188 -20.796875" fill="url(#c)"/></g></g></g></svg>